<svg xmlns="http://www.w3.org/2000/svg" id="svg-lin" viewBox="0 0 760 475" width="760" height="475" role="img" aria-label="Linear ball bushing on a shaft, section, with ball recirculation">
<title>Linear ball bushing on a shaft, section, with ball recirculation</title>
<style>
.g-ink{stroke:#1f2733;fill:none;stroke-width:2}
.g-thin{stroke:#1f2733;fill:none;stroke-width:1.1}
.g-cl{stroke:#1f2733;fill:none;stroke-width:1.1;stroke-dasharray:18 4 3 4}
.g-hid{stroke:#1f2733;fill:none;stroke-width:1.5;stroke-dasharray:7 4}
.g-t{font-family:Arial,Helvetica,sans-serif;font-size:15px;fill:#1f2733}
.g-b{font-family:Arial,Helvetica,sans-serif;font-size:15px;font-weight:700;fill:#1f2733}
.g-s{font-family:Arial,Helvetica,sans-serif;font-size:13px;fill:#4a5566}
.g-h{font-family:Arial,Helvetica,sans-serif;font-size:18px;font-weight:700;fill:#1f2733}
.g-pt{font-style:italic}
</style>
<defs>
<pattern id="hA-lin" patternUnits="userSpaceOnUse" width="9" height="9" patternTransform="rotate(45)"><rect width="9" height="9" fill="#ffffff"/><line x1="0" y1="0" x2="0" y2="9" stroke="#1f2733" stroke-width="1"/></pattern>
<pattern id="hB-lin" patternUnits="userSpaceOnUse" width="9" height="9" patternTransform="rotate(-45)"><rect width="9" height="9" fill="#ffffff"/><line x1="0" y1="0" x2="0" y2="9" stroke="#1f2733" stroke-width="1"/></pattern>
<pattern id="hS-lin" patternUnits="userSpaceOnUse" width="7" height="7" patternTransform="rotate(-45)"><rect width="7" height="7" fill="#eaf5ee"/><line x1="0" y1="0" x2="0" y2="7" stroke="#1f8a4c" stroke-width="1.1"/></pattern>
<pattern id="hC-lin" patternUnits="userSpaceOnUse" width="7" height="7" patternTransform="rotate(45)"><rect width="7" height="7" fill="#f6e7d3"/><line x1="0" y1="0" x2="0" y2="7" stroke="#a86b2d" stroke-width="1.2"/></pattern>
<pattern id="hG-lin" patternUnits="userSpaceOnUse" width="10" height="10" patternTransform="rotate(45)"><rect width="10" height="10" fill="#ffffff"/><line x1="0" y1="0" x2="0" y2="10" stroke="#1f2733" stroke-width="1"/><line x1="5" y1="0" x2="5" y2="10" stroke="#1f2733" stroke-width="0.5"/></pattern>
<marker id="dot-lin" markerWidth="8" markerHeight="8" refX="4" refY="4" markerUnits="userSpaceOnUse"><circle cx="4" cy="4" r="3" fill="#1f2733"/></marker>
<marker id="arr-lin" markerWidth="12" markerHeight="10" refX="11" refY="5" orient="auto" markerUnits="userSpaceOnUse"><path d="M0,0 L12,5 L0,10 z" fill="#1f2733"/></marker>
<marker id="arrs-lin" markerWidth="12" markerHeight="10" refX="1" refY="5" orient="auto" markerUnits="userSpaceOnUse"><path d="M12,0 L0,5 L12,10 z" fill="#1f2733"/></marker>
<marker id="arrR-lin" markerWidth="14" markerHeight="12" refX="13" refY="6" orient="auto" markerUnits="userSpaceOnUse"><path d="M0,0 L14,6 L0,12 z" fill="#c0392b"/></marker>
<marker id="arrB-lin" markerWidth="14" markerHeight="12" refX="13" refY="6" orient="auto" markerUnits="userSpaceOnUse"><path d="M0,0 L14,6 L0,12 z" fill="#2f6fde"/></marker>
</defs>
<rect x="0" y="0" width="760" height="475" fill="#ffffff"/>
<text class="g-h" x="30" y="30" text-anchor="start" >Linear ball bushing (bucha linear) on a hardened shaft, cut in half</text>
<rect x="40" y="200" width="550" height="60" fill="#dfe3ea" stroke="#1f2733" stroke-width="2"/>
<line class="g-cl" x1="20" y1="230" x2="605" y2="230" />
<rect x="150" y="130" width="360" height="34" fill="url(#hA-lin)" stroke="#1f2733" stroke-width="2"/>
<rect x="150" y="296" width="360" height="34" fill="url(#hA-lin)" stroke="#1f2733" stroke-width="2"/>
<circle cx="172" cy="188" r="11" fill="#ffffff" stroke="#1f2733" stroke-width="1.6"/>
<circle cx="198" cy="188" r="11" fill="#ffffff" stroke="#1f2733" stroke-width="1.6"/>
<circle cx="224" cy="188" r="11" fill="#ffffff" stroke="#1f2733" stroke-width="1.6"/>
<circle cx="250" cy="188" r="11" fill="#ffffff" stroke="#1f2733" stroke-width="1.6"/>
<circle cx="276" cy="188" r="11" fill="#ffffff" stroke="#1f2733" stroke-width="1.6"/>
<circle cx="302" cy="188" r="11" fill="#ffffff" stroke="#1f2733" stroke-width="1.6"/>
<circle cx="328" cy="188" r="11" fill="#ffffff" stroke="#1f2733" stroke-width="1.6"/>
<circle cx="354" cy="188" r="11" fill="#ffffff" stroke="#1f2733" stroke-width="1.6"/>
<circle cx="380" cy="188" r="11" fill="#ffffff" stroke="#1f2733" stroke-width="1.6"/>
<circle cx="406" cy="188" r="11" fill="#ffffff" stroke="#1f2733" stroke-width="1.6"/>
<circle cx="432" cy="188" r="11" fill="#ffffff" stroke="#1f2733" stroke-width="1.6"/>
<circle cx="458" cy="188" r="11" fill="#ffffff" stroke="#1f2733" stroke-width="1.6"/>
<circle cx="484" cy="188" r="11" fill="#ffffff" stroke="#1f2733" stroke-width="1.6"/>
<circle cx="198" cy="156" r="8" fill="#eef0f3" stroke="#1f2733" stroke-width="1.2"/>
<circle cx="224" cy="156" r="8" fill="#eef0f3" stroke="#1f2733" stroke-width="1.2"/>
<circle cx="250" cy="156" r="8" fill="#eef0f3" stroke="#1f2733" stroke-width="1.2"/>
<circle cx="276" cy="156" r="8" fill="#eef0f3" stroke="#1f2733" stroke-width="1.2"/>
<circle cx="302" cy="156" r="8" fill="#eef0f3" stroke="#1f2733" stroke-width="1.2"/>
<circle cx="328" cy="156" r="8" fill="#eef0f3" stroke="#1f2733" stroke-width="1.2"/>
<circle cx="354" cy="156" r="8" fill="#eef0f3" stroke="#1f2733" stroke-width="1.2"/>
<circle cx="380" cy="156" r="8" fill="#eef0f3" stroke="#1f2733" stroke-width="1.2"/>
<circle cx="406" cy="156" r="8" fill="#eef0f3" stroke="#1f2733" stroke-width="1.2"/>
<circle cx="432" cy="156" r="8" fill="#eef0f3" stroke="#1f2733" stroke-width="1.2"/>
<circle cx="458" cy="156" r="8" fill="#eef0f3" stroke="#1f2733" stroke-width="1.2"/>
<circle cx="172" cy="272" r="11" fill="#ffffff" stroke="#1f2733" stroke-width="1.6"/>
<circle cx="198" cy="272" r="11" fill="#ffffff" stroke="#1f2733" stroke-width="1.6"/>
<circle cx="224" cy="272" r="11" fill="#ffffff" stroke="#1f2733" stroke-width="1.6"/>
<circle cx="250" cy="272" r="11" fill="#ffffff" stroke="#1f2733" stroke-width="1.6"/>
<circle cx="276" cy="272" r="11" fill="#ffffff" stroke="#1f2733" stroke-width="1.6"/>
<circle cx="302" cy="272" r="11" fill="#ffffff" stroke="#1f2733" stroke-width="1.6"/>
<circle cx="328" cy="272" r="11" fill="#ffffff" stroke="#1f2733" stroke-width="1.6"/>
<circle cx="354" cy="272" r="11" fill="#ffffff" stroke="#1f2733" stroke-width="1.6"/>
<circle cx="380" cy="272" r="11" fill="#ffffff" stroke="#1f2733" stroke-width="1.6"/>
<circle cx="406" cy="272" r="11" fill="#ffffff" stroke="#1f2733" stroke-width="1.6"/>
<circle cx="432" cy="272" r="11" fill="#ffffff" stroke="#1f2733" stroke-width="1.6"/>
<circle cx="458" cy="272" r="11" fill="#ffffff" stroke="#1f2733" stroke-width="1.6"/>
<circle cx="484" cy="272" r="11" fill="#ffffff" stroke="#1f2733" stroke-width="1.6"/>
<circle cx="198" cy="304" r="8" fill="#eef0f3" stroke="#1f2733" stroke-width="1.2"/>
<circle cx="224" cy="304" r="8" fill="#eef0f3" stroke="#1f2733" stroke-width="1.2"/>
<circle cx="250" cy="304" r="8" fill="#eef0f3" stroke="#1f2733" stroke-width="1.2"/>
<circle cx="276" cy="304" r="8" fill="#eef0f3" stroke="#1f2733" stroke-width="1.2"/>
<circle cx="302" cy="304" r="8" fill="#eef0f3" stroke="#1f2733" stroke-width="1.2"/>
<circle cx="328" cy="304" r="8" fill="#eef0f3" stroke="#1f2733" stroke-width="1.2"/>
<circle cx="354" cy="304" r="8" fill="#eef0f3" stroke="#1f2733" stroke-width="1.2"/>
<circle cx="380" cy="304" r="8" fill="#eef0f3" stroke="#1f2733" stroke-width="1.2"/>
<circle cx="406" cy="304" r="8" fill="#eef0f3" stroke="#1f2733" stroke-width="1.2"/>
<circle cx="432" cy="304" r="8" fill="#eef0f3" stroke="#1f2733" stroke-width="1.2"/>
<circle cx="458" cy="304" r="8" fill="#eef0f3" stroke="#1f2733" stroke-width="1.2"/>
<path d="M500,188 C540,188 540,156 490,156" fill="none" stroke="#c0392b" stroke-width="2.2" marker-end="url(#arrR-lin)"/>
<path d="M180,156 C130,156 130,188 160,188" fill="none" stroke="#c0392b" stroke-width="2.2" marker-end="url(#arrR-lin)"/>
<line class="g-ink" x1="300" y1="95" x2="420" y2="95" style="stroke-width:3" marker-end="url(#arr-lin)"/>
<text class="g-b" x="360" y="82" text-anchor="middle" >the bushing slides</text>
<polyline class="g-thin" points="470,140 600,110 612,110" marker-start="url(#dot-lin)"/>
<text class="g-b" x="618" y="106" text-anchor="start" >Outer sleeve</text>
<text class="g-t" x="618" y="124" text-anchor="start" >sits in an H7 bore</text>
<polyline class="g-thin" points="410,188 600,170 612,170" marker-start="url(#dot-lin)"/>
<text class="g-b" x="618" y="166" text-anchor="start" >Loaded balls</text>
<text class="g-t" x="618" y="184" text-anchor="start" >roll on the shaft</text>
<polyline class="g-thin" points="560,245 600,290 612,290" marker-start="url(#dot-lin)"/>
<text class="g-b" x="618" y="286" text-anchor="start" >Shaft g6</text>
<text class="g-t" x="618" y="304" text-anchor="start" >hardened, ground</text>
<polyline class="g-thin" points="200,304 120,380 100,380" marker-start="url(#dot-lin)"/>
<text class="g-b" x="30" y="400" text-anchor="start" >Return balls</text>
<text class="g-t" x="30" y="418" text-anchor="start" >go back in a loop</text>
<text class="g-s" x="30" y="460" text-anchor="start" >Red arrows: at each end the balls turn and roll back in the return row. Not to scale.</text>
</svg>
